<svg width="787" height="112" viewBox="0 0 787 112" fill="none" xmlns="http://www.w3.org/2000/svg">
<g clip-path="url(#clip0_6535_179)">
<path d="M153 0H157.5H196C226.376 0 251 24.6243 251 55V55V55C251 86.4802 225.48 112 194 112H168.811C165.602 112 163 109.398 163 106.189V96.5H193.5C216.42 96.5 235 77.9198 235 55V55V55C235 33.4609 217.539 16 196 16H169V112H153V0Z" fill="#929292"/>
<path d="M682 54C682 24.4528 705.953 0 735.5 0V0V0C763.943 0 787 23.0573 787 51.5V62H699V49H769V47C769 28.4985 754.002 13.5 735.5 13.5V13.5V13.5C716.077 13.5 700.331 29.2455 700.331 48.6686V52V54V60V61V61C700.331 80.0538 715.778 95.5 734.831 95.5H736.808H737.201C750.573 95.5 762.502 87.0935 767 74.5V74.5L783.5 80V80C776.233 99.2559 757.802 112 737.22 112H736.808V112C706.538 112 682 87.4618 682 57.1923V54V54Z" fill="#929292"/>
<path d="M533 38.5V37C533 16.5655 549.565 0 570 0V0V0C583.177 0 595.222 7.44466 601.115 19.2302L603 23L605.109 18.783C610.864 7.27152 622.63 0 635.5 0V0V0C655.935 0 672.5 16.5655 672.5 37V112H655.5V62V37.5C655.5 25.3497 645.65 15.5 633.5 15.5V15.5C621.35 15.5 611.5 25.3497 611.5 37.5V62V112H594V62V39.5C594 26.2452 583.255 15.5 570 15.5V15.5V15.5C558.678 15.5 549.5 24.6782 549.5 36V62V112H533V82V38.5Z" fill="#929292"/>
<path d="M0 38.5V37C0 16.5655 16.5655 0 37 0V0V0C50.2572 0 62.4592 7.22977 68.8268 18.8576L70 21L71.4134 18.419C77.6329 7.06163 89.5511 0 102.5 0V0V0C122.935 0 139.5 16.5655 139.5 37V112H122.5V62V37.5C122.5 25.3497 112.65 15.5 100.5 15.5V15.5C88.3497 15.5 78.5 25.3497 78.5 37.5V62V112H61V62V39.5C61 26.2452 50.2548 15.5 37 15.5V15.5V15.5C25.6782 15.5 16.5 24.6782 16.5 36V62V112H0V82V38.5Z" fill="#929292"/>
<path d="M263 72C263 49.9086 280.909 32 303 32V32V32C324.893 32 342.715 49.606 342.982 71.4971L343 73L328 40.5V32H343V112H328V100.5L343 73H328V72C328 58.1929 316.807 47 303 47V47V47C289.193 47 278 58.1929 278 72V72V72C278 85.8071 289.193 97 303 97V97H304C317.255 97 328 86.2548 328 73V73H343V73C342.723 94.6195 325.118 112 303.497 112H303V112C280.909 112 263 94.0914 263 72V72V72Z" fill="#859FFF"/>
<path d="M355 112V72V52V32L370 32.0059V62L355.5 72L355.479 69.9051C355.272 49.0357 372.13 32.0054 393 32V32V32C413.434 32 430 48.5653 430 68.9996V112H415V70C415 57.8497 405.15 48 393 48V48V48C380.297 48 370 58.2975 370 71V112H355Z" fill="#859FFF"/>
<path d="M438 72C438 49.9086 455.909 32 478 32V32V32C499.893 32 517.715 49.606 517.982 71.4971L518 73L503 40.5V0H518V112H503V100.5L518 73H503V72C503 58.1929 491.807 47 478 47V47V47C464.193 47 453 58.1929 453 72V72V72C453 85.8071 464.193 97 478 97V97H479C492.255 97 503 86.2548 503 73V73H518V73C517.723 94.6195 500.118 112 478.497 112H478V112C455.909 112 438 94.0914 438 72V72V72Z" fill="#859FFF"/>
</g>
<defs>
<clipPath id="clip0_6535_179">
<rect width="787" height="112" fill="white"/>
</clipPath>
</defs>
</svg>
